<?xml version="1.0" encoding="UTF-8"?>
<svg width="24" height="24" viewBox="0 0 24 24" fill="none" xmlns="http://www.w3.org/2000/svg">
  <path d="M11.8 10.9C9.53 10.31 8.8 9.7 8.8 8.75C8.8 7.66 9.81 6.9 11.5 6.9C13.28 6.9 14.08 7.75 14.15 8.9H16.01C15.96 7.31 14.97 5.9 13.5 5.19V3H10V5.16C8.53 5.58 7.3 6.69 7.3 8.75C7.3 10.99 9.11 11.7 11.8 12.34C14.3 12.93 14.8 13.7 14.8 14.75C14.8 15.5 14.28 16.1 12.5 16.1C10.57 16.1 9.75 15.2 9.65 14H7.79C7.89 15.94 9.5 16.84 11 17.19V19H14.5V16.84C16.01 16.47 17.2 15.41 17.2 14.75C17.2 12.31 14.07 11.49 11.8 10.9Z" fill="#1a73e8"/>
</svg> 