<?xml version="1.0" encoding="UTF-8"?>
<svg width="24" height="24" viewBox="0 0 24 24" fill="none" xmlns="http://www.w3.org/2000/svg">
  <path d="M12 3L2 12H5V20H19V12H22L12 3ZM12 5.83L17 10.83V18H7V10.83L12 5.83Z" fill="#1a73e8"/>
  <path d="M12 8.5C10.62 8.5 9.5 9.62 9.5 11C9.5 12.38 10.62 13.5 12 13.5C13.38 13.5 14.5 12.38 14.5 11C14.5 9.62 13.38 8.5 12 8.5ZM12 12C11.17 12 10.5 11.33 10.5 10.5C10.5 9.67 11.17 9 12 9C12.83 9 13.5 9.67 13.5 10.5C13.5 11.33 12.83 12 12 12Z" fill="#1a73e8"/>
</svg> 