<?xml version="1.0" encoding="UTF-8"?>
<svg width="24" height="24" viewBox="0 0 24 24" fill="none" xmlns="http://www.w3.org/2000/svg">
  <path d="M12 2C6.48 2 2 6.48 2 12C2 17.52 6.48 22 12 22C17.52 22 22 17.52 22 12C22 6.48 17.52 2 12 2ZM12 20C7.59 20 4 16.41 4 12C4 7.59 7.59 4 12 4C16.41 4 20 7.59 20 12C20 16.41 16.41 20 12 20Z" fill="#1a73e8"/>
  <path d="M12.31 11.14C10.54 10.71 9.8 10.1 9.8 9.25C9.8 8.16 10.81 7.4 12.5 7.4C14.28 7.4 15.08 8.25 15.15 9.4H17.01C16.96 7.81 15.97 6.4 14.5 5.69V3H11V5.66C9.53 6.08 8.3 7.19 8.3 9.25C8.3 11.49 10.11 12.2 12.8 12.84C15.3 13.43 15.8 14.2 15.8 15.25C15.8 16 15.28 16.6 13.5 16.6C11.57 16.6 10.75 15.7 10.65 14.6H8.79C8.89 16.44 10.5 17.34 12 17.69V20H15.5V17.24C17.01 16.87 18.2 15.81 18.2 15.15C18.2 12.71 15.07 11.89 12.31 11.14Z" fill="#1a73e8"/>
</svg> 